<?xml version="1.0" encoding="UTF-8" standalone="no"?>
<!DOCTYPE svg PUBLIC "-//W3C//DTD SVG 1.1//EN" "http://www.w3.org/Graphics/SVG/1.1/DTD/svg11.dtd">
<svg xmlns="http://www.w3.org/2000/svg" version="1.1" viewBox="0.00 0.00 1024.00 1024.00">
<path fill="#ffffff" d="
  M 198.65 488.15
  Q 198.80 487.97 198.81 487.75
  C 201.84 432.82 220.02 377.76 260.23 339.01
  C 288.29 311.95 325.05 296.70 363.89 294.13
  A 0.53 0.53 0.0 0 1 364.46 294.66
  L 364.48 368.68
  Q 364.48 369.19 363.97 369.25
  C 340.33 371.86 319.27 379.85 302.79 397.17
  Q 283.84 417.08 274.75 443.27
  Q 267.24 464.93 264.98 487.50
  A 1.20 1.19 1.4 0 0 266.23 488.81
  Q 272.77 488.51 279.00 488.52
  Q 353.82 488.60 488.91 488.54
  Q 490.23 488.54 490.56 487.26
  C 502.51 441.08 518.54 396.23 549.38 358.68
  Q 583.82 316.76 637.20 311.49
  Q 675.56 307.71 709.04 319.89
  C 746.55 333.54 776.76 363.90 795.53 399.09
  Q 817.51 440.29 822.02 487.70
  A 0.96 0.96 0.0 0 0 822.98 488.57
  L 889.08 488.60
  A 0.62 0.61 -6.5 0 1 889.68 489.07
  Q 890.00 490.40 890.01 491.79
  Q 890.02 513.98 889.98 535.80
  A 0.72 0.72 0.0 0 1 889.26 536.52
  L 824.25 536.50
  Q 823.02 536.50 822.94 537.73
  C 819.34 598.58 793.80 660.38 743.05 696.39
  C 719.98 712.77 693.33 721.85 664.97 722.73
  A 0.70 0.70 0.0 0 1 664.25 722.03
  L 664.24 652.95
  A 0.76 0.76 0.0 0 1 664.90 652.20
  Q 709.61 646.50 734.14 608.82
  C 748.02 587.50 755.48 563.36 758.03 537.95
  A 1.31 1.30 2.8 0 0 756.73 536.52
  L 547.28 536.52
  A 1.01 1.01 0.0 0 0 546.30 537.29
  Q 541.84 554.59 536.89 571.92
  C 532.90 585.90 527.45 601.35 522.06 615.46
  Q 515.04 633.83 504.55 651.55
  Q 492.30 672.25 479.57 686.03
  Q 466.54 700.14 448.22 711.76
  Q 427.87 724.67 402.19 728.80
  Q 393.62 730.18 382.03 730.06
  Q 369.95 729.94 359.63 729.99
  Q 352.04 730.02 344.96 728.85
  Q 302.44 721.80 268.43 693.60
  C 245.23 674.36 228.05 647.77 216.32 619.29
  Q 212.56 610.17 209.77 600.74
  Q 200.90 570.80 198.87 538.00
  A 1.59 1.59 0.0 0 0 197.28 536.51
  L 133.25 536.50
  Q 132.75 536.50 132.75 536.00
  L 132.76 489.06
  A 0.43 0.42 -90.0 0 1 133.18 488.63
  Q 164.71 488.40 197.42 488.70
  A 1.61 1.57 20.3 0 0 198.65 488.15
  Z
  M 712.01 399.35
  C 690.73 382.76 663.30 377.44 637.43 383.40
  C 617.57 387.97 600.85 402.56 589.62 419.19
  C 576.04 439.31 566.61 463.56 559.93 487.59
  A 0.74 0.74 0.0 0 0 560.64 488.53
  Q 654.54 488.52 739.70 488.56
  Q 747.68 488.56 756.06 488.73
  Q 757.51 488.76 757.33 487.32
  C 753.19 454.16 739.02 420.40 712.01 399.35
  Z
  M 388.72 659.60
  C 426.83 654.30 446.83 620.07 459.52 587.55
  Q 469.49 561.99 476.03 537.50
  A 0.78 0.78 0.0 0 0 475.28 536.52
  L 265.79 536.51
  A 0.74 0.73 86.8 0 0 265.06 537.33
  Q 268.31 569.12 280.85 595.63
  C 294.58 624.67 318.69 650.52 350.99 658.03
  Q 369.35 662.30 388.72 659.60
  Z"
/>
</svg>
